# xmcd CD database file
#
# Track frame offsets:
#	150
#	16352
#	28979
#	48499
#	58943
#	74213
#	89842
#	102194
#	118857
#	132063
#	149446
#	165536
#
# Disc length: 2333 seconds
#
# Revision: 2
# Processed by: cddbd v1.5.2PL0 Copyright (c) Steve Scherf et al.
# Submitted via: CDex 2.16
#
DISCID=ba091b0c
DTITLE=Various Artist - Forever Country - Top Of The Country Charts [CD2]
DYEAR=2006
DGENRE=Country
TTITLE0=Lynn Anderson - I Was Country When Country Wasn't Cool
TTITLE1=Ferlin Husky - Good Hearted Woman
TTITLE2=Donna Fargo - I Can't Stop Loving You
TTITLE3=Johnny Paycheck - Mamas Don't Let Your Babies Grow Up To Be Cowboys
TTITLE4=Melba Montgomery - Cold Cold Heart
TTITLE5=Jack Greene - Lucille
TTITLE6=Lynn Anderson - Stand By Your Man
TTITLE7=Faron Young - You Were Always on My Mind
TTITLE8=Stu Philipps - Please Help Me, I'm Falling
TTITLE9=Nat Stuckey - Sunday Morning Coming Down
TTITLE10=Lynn Anderson - Devil Went Down to Georgia
TTITLE11=Dave Dudley - Walkin the Floor Over You
EXTD=YEAR: 2006
EXTT0=
EXTT1=
EXTT2=
EXTT3=
EXTT4=
EXTT5=
EXTT6=
EXTT7=
EXTT8=
EXTT9=
EXTT10=
EXTT11=
PLAYORDER=
